<svg xmlns="http://www.w3.org/2000/svg" xmlns:xlink="http://www.w3.org/1999/xlink"><symbol id="arrow" viewBox="0 0 88 62"><g fill="none">
    <g stroke="currentColor" stroke-width="2" stroke-linecap="round" stroke-linejoin="round">
        <path d="M36 52.213a29.836 29.836 0 0 0 15.297 8.21 29.76 29.76 0 0 0 17.26-1.707 29.902 29.902 0 0 0 13.408-11.049A30.089 30.089 0 0 0 87 31a30.089 30.089 0 0 0-5.035-16.667 29.902 29.902 0 0 0-13.407-11.05 29.76 29.76 0 0 0-17.262-1.707A29.837 29.837 0 0 0 36 9.786M1 31h60"/>
        <path d="m54 24 7 7-7 7"/>
    </g>
</g></symbol><symbol id="close" viewBox="0 0 60 60"><g fill="none">
    <circle cx="30" cy="30" r="30" fill="currentColor"/>
    <path d="M36 24 24 36M24 24l12 12" stroke="#fff" stroke-width="2" stroke-linecap="round" stroke-linejoin="round"/>
</g></symbol><symbol id="contact" viewBox="0 0 24 24"><g fill="none">
    <path d="M22 16.92v3a2 2 0 0 1-2.18 2 19.79 19.79 0 0 1-8.63-3.07 19.5 19.5 0 0 1-6-6 19.79 19.79 0 0 1-3.07-8.67A2 2 0 0 1 4.11 2h3a2 2 0 0 1 2 1.72c.127.96.361 1.903.7 2.81a2 2 0 0 1-.45 2.11L8.09 9.91a16 16 0 0 0 6 6l1.27-1.27a2 2 0 0 1 2.11-.45c.907.339 1.85.574 2.81.7A2 2 0 0 1 22 16.92Z" fill="#BC3324"/>
</g></symbol><symbol id="door" viewBox="0 0 24 24"><g fill="none">
    <g stroke="currentColor" stroke-width="2" stroke-linecap="round" stroke-linejoin="round">
        <path d="m10 17 5-5-5-5M15 12H3M15 3h4a2 2 0 0 1 2 2v14a2 2 0 0 1-2 2h-4"/>
    </g>
</g></symbol><symbol id="ellips" viewBox="0 0 18 18"><g fill="none">
    <circle cx="9" cy="9" r="9" fill="currentColor"/>
</g></symbol><symbol id="handshake" viewBox="0 0 22 18"><g fill="none">
    <path d="M15.48 7.41c-.39.39-1.04.39-1.43 0L9.58 2.95 2.53 9.99l-.66-.63a3 3 0 0 1 0-4.24L6.11.88a3 3 0 0 1 4.24 0L15.48 6c.39.39.39 1.02 0 1.41Zm.7-2.12c.78.78.78 2.05 0 2.83-1.27 1.27-2.61.22-2.83 0L9.59 4.36 4.02 9.93a.996.996 0 0 0 0 1.41c.39.39 1.02.39 1.42 0l4.62-4.62.71.71-4.62 4.62a.996.996 0 0 0 0 1.41c.39.39 1.02.39 1.42 0l4.62-4.62.71.71-4.62 4.62a.997.997 0 0 0 1.41 1.41l4.62-4.62.71.71-4.62 4.62a.998.998 0 0 0 .705 1.702.997.997 0 0 0 .705-.292l8.32-8.34a3 3 0 0 0 0-4.24L15.89.88a3.001 3.001 0 0 0-4.18-.06l4.47 4.47Z" fill="currentColor"/>
</g></symbol><symbol id="home" viewBox="0 0 18 21"><g fill="none">
    <g fill="currentColor">
        <path d="m17 7-6-5.26a3 3 0 0 0-4 0L1 7a3 3 0 0 0-1 2.26V18a3 3 0 0 0 3 3h12a3 3 0 0 0 3-3V9.25A3 3 0 0 0 17 7Zm-6 12H7v-5a1 1 0 0 1 1-1h2a1 1 0 0 1 1 1v5Zm5-1a1 1 0 0 1-1 1h-2v-5a3 3 0 0 0-3-3H8a3 3 0 0 0-3 3v5H3a1 1 0 0 1-1-1V9.25a1 1 0 0 1 .34-.75l6-5.25a1 1 0 0 1 1.32 0l6 5.25a1 1 0 0 1 .34.75V18Z"/>
        <path d="M16 18a1 1 0 0 1-1 1h-2v-5a3 3 0 0 0-3-3H8a3 3 0 0 0-3 3v5H3a1 1 0 0 1-1-1V9.25a1 1 0 0 1 .34-.75l6-5.25a1 1 0 0 1 1.32 0l6 5.25a1 1 0 0 1 .34.75V18Z"/>
    </g>
</g></symbol><symbol id="instagram" viewBox="0 0 512 512">
    <g fill="currentColor">
        <path d="M505 257c0 34.8-.7 69.7.2 104.5 1.5 61.6-37.2 109.2-86.5 130.4-19.8 8.5-40.6 13-62.1 13-67.3.1-134.7 1-202-.3-50.7-1-92.4-22.2-122.3-64-15.7-22-23.2-47-23.2-74.1v-215c0-58.5 28.5-99.4 79.1-126C110.2 14 134.1 9.1 159 9c65.3 0 130.7-.4 196 .2 50.7.4 93 19.8 124.2 60.6 17.4 22.8 25.8 49 25.8 77.8V257zm-459 0v110c0 16.4 3.8 31.8 12.3 45.7 22.3 36.5 56 54.3 97.8 55 67.1 1 134.3.4 201.5.2 16.5 0 32.5-3.4 47.4-10.5 40.6-19.4 63.3-50.3 63.1-96.7-.4-71-.1-142-.1-213 0-20.1-5.7-38.5-17.6-54.7-23-31.1-54.8-46.4-92.8-46.8-67-.8-134-.3-201-.2-14.3 0-28.1 2.9-41.5 7.9-36.8 13.7-71 48.4-69.4 99.5 1.2 34.6.3 69.1.3 103.6z"/>
        <path d="M257.6 363c-64.5 0-116.5-51.4-116.6-115.4-.1-63 52.3-114.6 116.4-114.6 64.3-.1 116.5 51.4 116.6 114.9 0 63.4-52.1 115-116.4 115.1zm0-37c43.9 0 79.5-35.1 79.4-78.3-.1-42.8-35.7-77.8-79.4-77.8-43.9 0-79.7 34.9-79.7 78 .1 43.2 35.8 78.2 79.7 78.1zM387.5 98c13.5 0 24.5 11.5 24.5 25.6-.1 14.1-11.2 25.5-24.7 25.4-13.3-.1-24.2-11.5-24.2-25.3C363 109.6 374 98 387.5 98z"/>
    </g>
</symbol><symbol id="logo" viewBox="0 0 202 147"><g fill="none">
    <path fill="#1F1E1E" d="M0 0h147v147H0z"/>
    <path d="M39.965 72.439H26.633V50.032H26.6v-.033h-4.686V73h18.051v-.561ZM43.931 73h18.117v-.561h-13.43V61.285H59.11v-.594H48.617V50.56h13.431v-.561H43.931V73ZM70.699 73V50.56c2.87 0 11.715 1.089 12.375 13.893V73h4.686V49.999h-4.686v10.329c-1.42-6.138-5.907-10.329-12.375-10.329h-4.686V73h4.686ZM97.389 73V50.56c2.871 0 11.715 1.089 12.375 13.893V73h4.686V49.999h-4.686v10.329c-1.419-6.138-5.907-10.329-12.375-10.329h-4.686V73h4.686ZM119.393 73h4.686V49.999h-4.686V73Z" fill="#fff"/>
    <path fill="#BC3324" d="M81 92h121v42H81z"/>
    <path d="M108.922 124h.54l2.94-8.55h8.55l3.33 8.55h4.47l-8.1-20.91h-4.53l-7.2 20.91Zm7.5-20.25 4.35 11.19h-8.19l3.84-11.19ZM132.643 103.09V124h4.26v-7.23h5.07l4.89 7.2h4.86l-5.16-7.65c3-.78 5.28-2.64 5.28-6.81 0-5.22-3.81-6.87-8.25-6.87-4.68 0-6.03 3.51-6.69 7.41v-6.96h-4.26Zm5.43 4.38c.81-2.94 2.91-4.14 4.77-4.29 4.47-.42 4.65 2.43 4.65 6.33 0 6.33-3.36 6.75-6.24 6.75h-4.35s-.12-4.14 1.17-8.79ZM162.083 103.6l.03 20.4h4.26v-20.4h8.61v-.51h-21.51v.51h8.61Z" fill="#fff"/>
</g></symbol><symbol id="main-logo" viewBox="0 0 1920 325"><g fill="none">
    <path d="M485.389 317.073V0H0v325h647.345v-7.927H485.389ZM675.453 325h200.745v-7.927H713.443V159.935h126.765v-7.926H713.443V7.927H876V0H675.453v325ZM941.896 325V8.393c34.39 0 141.564 13.989 149.554 194.907V325h37.99V0h-37.99v143.615c-9.59-48.027-28.39-82.998-57.18-108.177C998.68 3.73 958.291 0 941.896 0h-37.99v325h37.99ZM1207.45 325V8.393c34.39 0 141.56 13.989 149.56 194.907V325H1395V0h-37.99v143.615c-9.6-48.027-28.4-82.998-57.19-108.177C1264.23 3.73 1223.84 0 1207.45 0h-37.99v325h37.99ZM1473 0h-37.99v325H1920V0h-447Z" fill="#1F1E1E"/>
</g></symbol><symbol id="phone" viewBox="0 0 20 20"><g fill="none">
    <path d="M20 14.92v3a2 2 0 0 1-2.18 2 19.791 19.791 0 0 1-8.63-3.07 19.5 19.5 0 0 1-6-6A19.79 19.79 0 0 1 .12 2.18 2 2 0 0 1 2.11 0h3a2 2 0 0 1 2 1.72c.127.96.361 1.903.7 2.81a2 2 0 0 1-.45 2.11L6.09 7.91a16 16 0 0 0 6 6l1.27-1.27a2 2 0 0 1 2.11-.45c.907.339 1.85.574 2.81.7A2 2 0 0 1 20 14.92Z" fill="currentColor"/>
</g></symbol><symbol id="star" viewBox="0 0 21 20"><g fill="none">
    <path d="M19.663 6.772a1 1 0 0 1 .33.462 1 1 0 0 1-.32 1.02l-4.13 4 1 5.68a1 1 0 0 1-.99 1.19.93.93 0 0 1-.46-.12l-5.1-2.68-5.12 2.67a1 1 0 0 1-1.45-1.07l1-5.68-4.13-4a1 1 0 0 1-.25-1 1 1 0 0 1 .81-.68l5.69-.84 2.55-5.16a1 1 0 0 1 1.8 0l2.55 5.17 5.69.83a1 1 0 0 1 .53.208Z" fill="currentColor"/>
</g></symbol><symbol id="subtract" viewBox="0 0 22 22"><g fill="none">
    <path fill-rule="evenodd" clip-rule="evenodd" d="M11 22c6.075 0 11-4.925 11-11S17.075 0 11 0 0 4.925 0 11s4.925 11 11 11Zm-1-6.6a1 1 0 0 1 1-1h.011a1 1 0 1 1 0 2H11a1 1 0 0 1-1-1Zm2-8.8a1 1 0 1 0-2 0V11a1 1 0 1 0 2 0V6.6Z" fill="currentColor"/>
</g></symbol><symbol id="tagree" viewBox="0 0 57 17"><g fill="none">
    <g fill="currentColor">
        <path d="M6.301 12.695H4.107a3.15 3.15 0 0 1-1.276-.262 3.309 3.309 0 0 1-1.037-.704 3.6 3.6 0 0 1-.698-1.066 3.227 3.227 0 0 1-.26-1.288V.604L3.23 0v3.843h1.396l.598 2.414H3.23v3.118c0 .255.086.47.26.644a.84.84 0 0 0 .617.261h1.596l.598 2.415ZM16.7 2.615v10.08h-2.393v-5.03c0-.805-.28-1.489-.838-2.052a2.757 2.757 0 0 0-2.034-.845 2.91 2.91 0 0 0-1.117.221 2.862 2.862 0 0 0-.917.624 2.806 2.806 0 0 0-.837 2.052c0 .791.279 1.469.837 2.032.266.282.572.496.918.644.358.134.73.201 1.116.201.4 0 .758-.067 1.077-.201l.858 2.152c-.612.309-1.323.463-2.134.463a5.1 5.1 0 0 1-2.034-.402 5.065 5.065 0 0 1-1.596-1.147 5.253 5.253 0 0 1-1.057-1.69 5.568 5.568 0 0 1-.378-2.052c0-.738.126-1.428.378-2.072a5.252 5.252 0 0 1 1.057-1.69 4.807 4.807 0 0 1 1.596-1.127 4.892 4.892 0 0 1 2.034-.422c.651 0 1.23.1 1.735.302.505.2.95.456 1.336.764v-.805H16.7ZM28.326 11.689c0 .724-.14 1.408-.419 2.052a5.188 5.188 0 0 1-1.116 1.69 5.41 5.41 0 0 1-1.675 1.147 5.03 5.03 0 0 1-2.054.422 5.053 5.053 0 0 1-1.696-.282 5.279 5.279 0 0 1-1.475-.804l1.735-1.73c.425.268.904.402 1.436.402.81 0 1.488-.289 2.034-.865.558-.564.837-1.24.837-2.032V7.645c0-.778-.279-1.462-.837-2.052a2.757 2.757 0 0 0-2.034-.845c-.771 0-1.45.282-2.035.845-.558.59-.837 1.274-.837 2.052 0 .805.28 1.489.837 2.052.585.563 1.264.845 2.035.845.398 0 .757-.067 1.076-.201l.898 2.253a5.12 5.12 0 0 1-1.935.362h-.04a5.194 5.194 0 0 1-2.034-.402 5.41 5.41 0 0 1-2.811-2.837 5.151 5.151 0 0 1-.42-2.072 5.9 5.9 0 0 1 .36-2.072c.24-.644.572-1.207.997-1.69a4.65 4.65 0 0 1 1.555-1.127 4.71 4.71 0 0 1 1.995-.422c.69 0 1.303.107 1.834.322.532.2.997.456 1.396.764v-.784h2.393v9.053ZM31.92 3.4a5.173 5.173 0 0 1 1.257-.764 4.132 4.132 0 0 1 1.615-.302v2.414c-.797 0-1.476.282-2.034.845-.558.59-.837 1.274-.837 2.052v5.05h-2.393V2.615h2.393V3.4ZM42.85 8.872h-5.224c.133.309.325.584.578.825.28.282.592.496.937.644.346.134.712.201 1.097.201.545 0 1.03-.127 1.456-.382l2.493 1.006a5.143 5.143 0 0 1-1.735 1.327 5.28 5.28 0 0 1-2.214.463 5.245 5.245 0 0 1-2.054-.402 5.41 5.41 0 0 1-2.812-2.837 5.322 5.322 0 0 1-.399-2.052c0-.738.133-1.428.4-2.072a5.462 5.462 0 0 1 1.136-1.69 5.136 5.136 0 0 1 1.675-1.127 5.03 5.03 0 0 1 2.054-.422c.731 0 1.416.14 2.054.422a5.136 5.136 0 0 1 1.675 1.127c.479.483.851 1.046 1.117 1.69.28.644.419 1.334.419 2.072 0 .43-.047.832-.14 1.207H42.85Zm-2.612-4.104c-.771 0-1.449.282-2.034.845a2.73 2.73 0 0 0-.578.845h5.224a2.732 2.732 0 0 0-.578-.845 2.757 2.757 0 0 0-2.034-.845ZM54.185 8.872H48.96c.133.309.326.584.578.825.28.282.592.496.937.644.346.134.712.201 1.097.201.545 0 1.03-.127 1.456-.382l2.493 1.006a5.143 5.143 0 0 1-1.735 1.327 5.281 5.281 0 0 1-2.214.463 5.245 5.245 0 0 1-2.054-.402 5.41 5.41 0 0 1-2.812-2.837 5.322 5.322 0 0 1-.398-2.052c0-.738.133-1.428.398-2.072a5.464 5.464 0 0 1 1.137-1.69 5.136 5.136 0 0 1 1.675-1.127 5.03 5.03 0 0 1 2.054-.422c.731 0 1.416.14 2.054.422a5.136 5.136 0 0 1 1.675 1.127c.479.483.851 1.046 1.117 1.69.28.644.419 1.334.419 2.072 0 .43-.047.832-.14 1.207h-2.512Zm-2.613-4.104c-.77 0-1.449.282-2.034.845a2.73 2.73 0 0 0-.578.845h5.225a2.73 2.73 0 0 0-.579-.845 2.757 2.757 0 0 0-2.034-.845Z"/>
    </g>
</g></symbol><symbol id="user" viewBox="0 0 24 24"><g fill="none">
    <path d="M13.3 12.22A4.92 4.92 0 0 0 15 8.5a5 5 0 0 0-10 0 4.92 4.92 0 0 0 1.7 3.72A8 8 0 0 0 2 19.5a1 1 0 1 0 2 0 6 6 0 1 1 12 0 1 1 0 0 0 2 0 8 8 0 0 0-4.7-7.28ZM10 11.5a3 3 0 1 1 0-6 3 3 0 0 1 0 6Zm11.71-2.37a1 1 0 0 0-1.42 0l-2 2-.62-.63a1.002 1.002 0 0 0-1.71.705 1 1 0 0 0 .29.705l1.34 1.34a1 1 0 0 0 1.41 0l2.67-2.67a1 1 0 0 0 .04-1.45Z" fill="currentColor"/>
</g></symbol><symbol id="vk" viewBox="0 0 32 32">
    <path style="text-indent:0;text-align:start;line-height:normal;text-transform:none;block-progression:tb;-inkscape-font-specification:Bitstream Vera Sans" d="M9.094 5C6.85 5 5 6.851 5 9.094v13.812C5 25.15 6.851 27 9.094 27h13.812C25.15 27 27 25.149 27 22.906V9.094C27 6.85 25.149 5 22.906 5H9.094zm0 2h13.812C24.068 7 25 7.932 25 9.094v13.812A2.087 2.087 0 0 1 22.906 25H9.094A2.087 2.087 0 0 1 7 22.906V9.094C7 7.932 7.932 7 9.094 7zm6.625 5.219c-.734-.007-1.367.014-1.719.187-.234.115-.422.36-.313.375.136.018.463.09.626.313.21.287.187.937.187.937s.123 1.78-.281 2c-.277.151-.652-.182-1.469-1.593-.419-.724-.719-1.5-.719-1.5s-.078-.17-.187-.25c-.132-.098-.313-.126-.313-.126l-1.937.032s-.3-.003-.406.125c-.097.114-.032.344-.032.344s1.547 3.6 3.281 5.406C14.03 20.123 15.845 20 15.845 20h.812s.25-.02.375-.156c.116-.125.094-.375.094-.375s-.009-1.09.5-1.25c.502-.16 1.16 1.062 1.844 1.531.517.355.906.281.906.281L22.188 20s.953-.06.5-.813c-.037-.06-.25-.546-1.344-1.562-1.146-1.064-1.006-.91.375-2.75.84-1.121 1.198-1.8 1.093-2.094-.1-.279-.718-.187-.718-.187H20.03s-.168-.006-.281.062c-.111.066-.188.219-.188.219s-.316.856-.75 1.594c-.916 1.556-1.287 1.627-1.437 1.531-.349-.225-.25-.893-.25-1.375 0-1.508.236-2.15-.438-2.313-.224-.053-.395-.087-.968-.093z" color="currentColor" overflow="visible" font-family="Bitstream Vera Sans"/>
</symbol><symbol id="warning" viewBox="0 0 24 24"><g fill="none">
    <path fill-rule="evenodd" clip-rule="evenodd" d="M12 23c6.075 0 11-4.925 11-11S18.075 1 12 1 1 5.925 1 12s4.925 11 11 11Zm-1-6.6a1 1 0 0 1 1-1h.011a1 1 0 1 1 0 2H12a1 1 0 0 1-1-1Zm2-8.8a1 1 0 1 0-2 0V12a1 1 0 1 0 2 0V7.6Z" fill="#BC3324"/>
</g></symbol><symbol id="x" viewBox="0 0 24 24"><g fill="none">
    <g stroke="currentColor" stroke-width="2" stroke-linecap="round" stroke-linejoin="round">
        <path d="M18 6 6 18M6 6l12 12"/>
    </g>
</g></symbol></svg>