<svg viewBox="0 0 88 62" fill="none" xmlns="http://www.w3.org/2000/svg">
<g stroke="currentColor" stroke-width="2" stroke-linecap="round" stroke-linejoin="round">
<path d="M36 52.2132C40.1781 56.4088 45.5013 59.266 51.2966 60.4235C57.0918 61.5811 63.0986 60.987 68.5576 58.7164C74.0166 56.4457 78.6824 52.6006 81.9651 47.6671C85.2479 42.7336 87 36.9334 87 31C87 25.0666 85.2479 19.2664 81.9651 14.3329C78.6824 9.39943 74.0166 5.55425 68.5576 3.28363C63.0986 1.013 57.0918 0.4189 51.2965 1.57646C45.5013 2.73401 40.1781 5.59123 36 9.78681"/>
<path d="M1 31L61 31"/>
<path d="M54 24L61 31L54 38"/>
</g>
</svg>
