<svg viewBox="0 0 24 24" fill="none" xmlns="http://www.w3.org/2000/svg">
<path d="M16.48 10.4098C16.09 10.7998 15.44 10.7998 15.05 10.4098L10.58 5.94981L3.52997 12.9898L2.86997 12.3598C2.30817 11.7973 1.99261 11.0348 1.99261 10.2398C1.99261 9.4448 2.30817 8.68231 2.86997 8.11981L7.10997 3.87981C7.67248 3.318 8.43497 3.00245 9.22997 3.00245C10.025 3.00245 10.7875 3.318 11.35 3.87981L16.48 8.99981C16.87 9.38981 16.87 10.0198 16.48 10.4098ZM17.18 8.28981C17.96 9.06981 17.96 10.3398 17.18 11.1198C15.91 12.3898 14.57 11.3398 14.35 11.1198L10.59 7.35981L5.01997 12.9298C4.92727 13.0223 4.85372 13.1322 4.80354 13.2532C4.75336 13.3742 4.72753 13.5038 4.72753 13.6348C4.72753 13.7658 4.75336 13.8955 4.80354 14.0164C4.85372 14.1374 4.92727 14.2473 5.01997 14.3398C5.40997 14.7298 6.03997 14.7298 6.43997 14.3398L11.06 9.71981L11.77 10.4298L7.14997 15.0498C7.05727 15.1423 6.98372 15.2522 6.93354 15.3732C6.88336 15.4942 6.85753 15.6238 6.85753 15.7548C6.85753 15.8858 6.88336 16.0155 6.93354 16.1364C6.98372 16.2574 7.05727 16.3673 7.14997 16.4598C7.53997 16.8498 8.16997 16.8498 8.56997 16.4598L13.19 11.8398L13.9 12.5498L9.27997 17.1698C9.18739 17.2624 9.11395 17.3723 9.06385 17.4933C9.01374 17.6142 8.98795 17.7439 8.98795 17.8748C8.98795 18.0057 9.01374 18.1354 9.06385 18.2563C9.11395 18.3773 9.18739 18.4872 9.27997 18.5798C9.37256 18.6724 9.48247 18.7458 9.60343 18.7959C9.7244 18.846 9.85404 18.8718 9.98497 18.8718C10.1159 18.8718 10.2456 18.846 10.3665 18.7959C10.4875 18.7458 10.5974 18.6724 10.69 18.5798L15.31 13.9598L16.02 14.6698L11.4 19.2898C11.3074 19.3824 11.234 19.4923 11.1838 19.6133C11.1337 19.7342 11.108 19.8639 11.108 19.9948C11.108 20.1257 11.1337 20.2554 11.1838 20.3763C11.234 20.4973 11.3074 20.6072 11.4 20.6998C11.587 20.8868 11.8405 20.9918 12.105 20.9918C12.2359 20.9918 12.3656 20.966 12.4865 20.9159C12.6075 20.8658 12.7174 20.7924 12.81 20.6998L21.13 12.3598C21.6918 11.7973 22.0073 11.0348 22.0073 10.2398C22.0073 9.4448 21.6918 8.68231 21.13 8.11981L16.89 3.87981C16.3378 3.32824 15.5925 3.01346 14.8121 3.00226C14.0318 2.99106 13.2777 3.28431 12.71 3.81981L17.18 8.28981Z" fill="#BC3324"/>
</svg>
