<svg viewBox="0 0 22 18" fill="none" xmlns="http://www.w3.org/2000/svg">
<path d="M15.48 7.40981C15.09 7.79981 14.44 7.79981 14.05 7.40981L9.57998 2.94981L2.52997 9.98981L1.86997 9.35981C1.30817 8.7973 0.992615 8.03481 0.992615 7.23981C0.992615 6.4448 1.30817 5.68231 1.86997 5.11981L6.10997 0.879806C6.67248 0.318004 7.43497 0.00244548 8.22997 0.00244548C9.02498 0.00244548 9.78747 0.318004 10.35 0.879806L15.48 5.99981C15.87 6.38981 15.87 7.01981 15.48 7.40981ZM16.18 5.28981C16.96 6.06981 16.96 7.33981 16.18 8.11981C14.91 9.3898 13.57 8.33981 13.35 8.11981L9.58998 4.35981L4.01997 9.92981C3.92727 10.0223 3.85372 10.1322 3.80354 10.2532C3.75336 10.3742 3.72753 10.5038 3.72753 10.6348C3.72753 10.7658 3.75336 10.8955 3.80354 11.0164C3.85372 11.1374 3.92727 11.2473 4.01997 11.3398C4.40997 11.7298 5.03997 11.7298 5.43997 11.3398L10.06 6.71981L10.77 7.42981L6.14997 12.0498C6.05727 12.1423 5.98372 12.2522 5.93354 12.3732C5.88336 12.4942 5.85753 12.6238 5.85753 12.7548C5.85753 12.8858 5.88336 13.0155 5.93354 13.1364C5.98372 13.2574 6.05727 13.3673 6.14997 13.4598C6.53997 13.8498 7.16997 13.8498 7.56997 13.4598L12.19 8.83981L12.9 9.54981L8.27997 14.1698C8.18739 14.2624 8.11395 14.3723 8.06385 14.4933C8.01374 14.6142 7.98795 14.7439 7.98795 14.8748C7.98795 15.0057 8.01374 15.1354 8.06385 15.2563C8.11395 15.3773 8.18739 15.4872 8.27997 15.5798C8.37256 15.6724 8.48247 15.7458 8.60343 15.7959C8.7244 15.846 8.85404 15.8718 8.98497 15.8718C9.1159 15.8718 9.24555 15.846 9.36652 15.7959C9.48748 15.7458 9.59739 15.6724 9.68997 15.5798L14.31 10.9598L15.02 11.6698L10.4 16.2898C10.3074 16.3824 10.234 16.4923 10.1838 16.6133C10.1337 16.7342 10.108 16.8639 10.108 16.9948C10.108 17.1257 10.1337 17.2554 10.1838 17.3763C10.234 17.4973 10.3074 17.6072 10.4 17.6998C10.587 17.8868 10.8405 17.9918 11.105 17.9918C11.2359 17.9918 11.3656 17.966 11.4865 17.9159C11.6075 17.8658 11.7174 17.7924 11.81 17.6998L20.13 9.35981C20.6918 8.7973 21.0073 8.03481 21.0073 7.23981C21.0073 6.4448 20.6918 5.68231 20.13 5.11981L15.89 0.879806C15.3378 0.328235 14.5925 0.0134641 13.8121 0.00226261C13.0318 -0.00893888 12.2777 0.28431 11.71 0.819806L16.18 5.28981Z" fill="currentColor"/>
</svg>
