<svg viewBox="0 0 18 21" fill="none" xmlns="http://www.w3.org/2000/svg">
<g fill="currentColor">
<path d="M17 7.00001L11 1.74001C10.45 1.24805 9.73794 0.976074 9 0.976074C8.26207 0.976074 7.55003 1.24805 7 1.74001L1 7.00001C0.682372 7.28408 0.428903 7.63256 0.256475 8.02225C0.084047 8.41194 -0.00338411 8.83389 3.24138e-06 9.26001V18C3.24138e-06 18.7957 0.316074 19.5587 0.878683 20.1213C1.44129 20.6839 2.20435 21 3 21H15C15.7957 21 16.5587 20.6839 17.1213 20.1213C17.6839 19.5587 18 18.7957 18 18V9.25001C18.002 8.82557 17.9139 8.40555 17.7415 8.01769C17.5691 7.62983 17.3164 7.28296 17 7.00001ZM11 19H7V14C7 13.7348 7.10536 13.4804 7.2929 13.2929C7.48043 13.1054 7.73479 13 8 13H10C10.2652 13 10.5196 13.1054 10.7071 13.2929C10.8946 13.4804 11 13.7348 11 14V19ZM16 18C16 18.2652 15.8946 18.5196 15.7071 18.7071C15.5196 18.8946 15.2652 19 15 19H13V14C13 13.2044 12.6839 12.4413 12.1213 11.8787C11.5587 11.3161 10.7957 11 10 11H8C7.20435 11 6.44129 11.3161 5.87868 11.8787C5.31607 12.4413 5 13.2044 5 14V19H3C2.73479 19 2.48043 18.8946 2.2929 18.7071C2.10536 18.5196 2 18.2652 2 18V9.25001C2.00018 9.10802 2.0306 8.9677 2.08922 8.83839C2.14784 8.70907 2.23333 8.59372 2.34 8.50001L8.34 3.25001C8.52249 3.08969 8.75709 3.00127 9 3.00127C9.24291 3.00127 9.47751 3.08969 9.66 3.25001L15.66 8.50001C15.7667 8.59372 15.8522 8.70907 15.9108 8.83839C15.9694 8.9677 15.9998 9.10802 16 9.25001V18Z"/>
<path d="M16 18C16 18.2652 15.8946 18.5196 15.7071 18.7071C15.5196 18.8946 15.2652 19 15 19H13V14C13 13.2044 12.6839 12.4413 12.1213 11.8787C11.5587 11.3161 10.7957 11 10 11H8C7.20435 11 6.44129 11.3161 5.87868 11.8787C5.31607 12.4413 5 13.2044 5 14V19H3C2.73479 19 2.48043 18.8946 2.2929 18.7071C2.10536 18.5196 2 18.2652 2 18V9.25001C2.00018 9.10802 2.0306 8.9677 2.08922 8.83839C2.14784 8.70907 2.23333 8.59372 2.34 8.50001L8.34 3.25001C8.52249 3.08969 8.75709 3.00127 9 3.00127C9.24291 3.00127 9.47751 3.08969 9.66 3.25001L15.66 8.50001C15.7667 8.59372 15.8522 8.70907 15.9108 8.83839C15.9694 8.9677 15.9998 9.10802 16 9.25001V18Z"/>
</g>
</svg>
