<svg width="202" height="147" viewBox="0 0 202 147" fill="none" xmlns="http://www.w3.org/2000/svg">
<rect width="147" height="147" fill="#1F1E1E"/>
<path d="M39.9655 72.439H26.6335V50.032H26.6005V49.999H21.9145V73H39.9655V72.439ZM43.9316 73H62.0486V72.439H48.6176V61.285H59.1116V60.691H48.6176V50.56H62.0486V49.999H43.9316V73ZM70.6993 73V50.56C73.5703 50.56 82.4143 51.649 83.0743 64.453V73H87.7603V49.999H83.0743V60.328C81.6553 54.19 77.1673 49.999 70.6993 49.999H66.0133V73H70.6993ZM97.3893 73V50.56C100.26 50.56 109.104 51.649 109.764 64.453V73H114.45V49.999H109.764V60.328C108.345 54.19 103.857 49.999 97.3893 49.999H92.7033V73H97.3893ZM119.393 73H124.079V49.999H119.393V73Z" fill="white"/>
<rect x="81" y="92" width="121" height="42" fill="#BC3324"/>
<path d="M108.922 124H109.462L112.402 115.45H120.952L124.282 124H128.752L120.652 103.09H116.122L108.922 124ZM116.422 103.75L120.772 114.94H112.582L116.422 103.75ZM132.644 103.09V124H136.904V116.77H141.974L146.864 123.97H151.724L146.564 116.32C149.564 115.54 151.844 113.68 151.844 109.51C151.844 104.29 148.034 102.64 143.594 102.64C138.914 102.64 137.564 106.15 136.904 110.05V103.09H132.644ZM138.074 107.47C138.884 104.53 140.984 103.33 142.844 103.18C147.314 102.76 147.494 105.61 147.494 109.51C147.494 115.84 144.134 116.26 141.254 116.26H136.904C136.904 116.26 136.784 112.12 138.074 107.47ZM162.084 103.6L162.114 124H166.374V103.6H174.984V103.09H153.474V103.6H162.084Z" fill="white"/>
</svg>
