<svg viewBox="0 0 1920 325" fill="none" xmlns="http://www.w3.org/2000/svg">
    <path d="M485.389 317.073V0H0V325H647.345V317.073H485.389Z" fill="#1F1E1E"/>
    <path d="M675.453 325H876.198V317.073H713.443V159.935H840.208V152.009H713.443V7.92684H876V0H675.453V325Z" fill="#1F1E1E"/>
    <path d="M941.896 325V8.39312C976.286 8.39312 1083.46 22.3816 1091.45 203.3V325H1129.44V0H1091.45V143.615C1081.86 95.5882 1063.06 60.6169 1034.27 35.4376C998.68 3.73028 958.291 0 941.896 0H903.906V325H941.896Z" fill="#1F1E1E"/>
    <path d="M1207.45 325V8.39312C1241.84 8.39312 1349.01 22.3816 1357.01 203.3V325H1395V0H1357.01V143.615C1347.41 95.5882 1328.61 60.6169 1299.82 35.4376C1264.23 3.73028 1223.84 0 1207.45 0H1169.46V325H1207.45Z" fill="#1F1E1E"/>
    <path d="M1473 0H1435.01V325H1473H1920V0H1473Z" fill="#1F1E1E"/>
</svg>