<svg viewBox="0 0 20 20" fill="none" xmlns="http://www.w3.org/2000/svg">
<path d="M20 14.9201V17.9201C20.0011 18.1986 19.9441 18.4743 19.8325 18.7294C19.7209 18.9846 19.5573 19.2137 19.3521 19.402C19.1469 19.5902 18.9046 19.7336 18.6407 19.8228C18.3769 19.912 18.0974 19.9452 17.82 19.9201C14.7428 19.5857 11.787 18.5342 9.18999 16.8501C6.77382 15.3148 4.72533 13.2663 3.18999 10.8501C1.49997 8.2413 0.448237 5.27109 0.119994 2.1801C0.0950046 1.90356 0.127869 1.62486 0.216495 1.36172C0.30512 1.09859 0.447565 0.856786 0.63476 0.651718C0.821955 0.44665 1.0498 0.282806 1.30379 0.170619C1.55777 0.0584315 1.83233 0.000358432 2.10999 9.69523e-05H5.10999C5.5953 -0.00467949 6.06579 0.167176 6.43376 0.48363C6.80173 0.800084 7.04207 1.23954 7.10999 1.7201C7.23662 2.68016 7.47144 3.62282 7.80999 4.5301C7.94454 4.88802 7.97366 5.27701 7.8939 5.65098C7.81415 6.02494 7.62886 6.36821 7.35999 6.6401L6.08999 7.9101C7.51355 10.4136 9.58645 12.4865 12.09 13.9101L13.36 12.6401C13.6319 12.3712 13.9751 12.1859 14.3491 12.1062C14.7231 12.0264 15.1121 12.0556 15.47 12.1901C16.3773 12.5286 17.3199 12.7635 18.28 12.8901C18.7658 12.9586 19.2094 13.2033 19.5265 13.5776C19.8437 13.9519 20.0122 14.4297 20 14.9201Z" fill="currentColor"/>
</svg>
