<svg viewBox="0 0 22 22" fill="none" xmlns="http://www.w3.org/2000/svg">
<path fill-rule="evenodd" clip-rule="evenodd" d="M11 22C17.0751 22 22 17.0751 22 11C22 4.92487 17.0751 0 11 0C4.92487 0 0 4.92487 0 11C0 17.0751 4.92487 22 11 22ZM10 15.4C10 14.8477 10.4477 14.4 11 14.4H11.011C11.5633 14.4 12.011 14.8477 12.011 15.4C12.011 15.9523 11.5633 16.4 11.011 16.4H11C10.4477 16.4 10 15.9523 10 15.4ZM12 6.6C12 6.04772 11.5523 5.6 11 5.6C10.4477 5.6 10 6.04772 10 6.6V11C10 11.5523 10.4477 12 11 12C11.5523 12 12 11.5523 12 11V6.6Z" fill="currentColor"/>
</svg>
