<svg viewBox="0 0 57 17" fill="none" xmlns="http://www.w3.org/2000/svg">
<g fill="currentColor">
<path d="M6.301 12.6947H4.10739C3.65537 12.6947 3.22994 12.6075 2.83111 12.4331C2.43227 12.2588 2.08661 12.0241 1.79413 11.729C1.50164 11.4205 1.26899 11.0651 1.09616 10.6627C0.923329 10.2604 0.836914 9.83116 0.836914 9.37515V0.603551L3.22994 0V3.8426H4.62588L5.22413 6.2568H3.22994V9.37515C3.22994 9.62998 3.31636 9.84458 3.48919 10.0189C3.66202 10.1933 3.86808 10.2805 4.10739 10.2805H5.70274L6.301 12.6947Z" />
<path d="M16.6999 2.61538V12.6947H14.3069V7.66509C14.3069 6.86036 14.0277 6.17633 13.4693 5.61302C12.911 5.0497 12.2329 4.76805 11.4353 4.76805C11.0497 4.76805 10.6775 4.84181 10.3185 4.98935C9.97285 5.13688 9.66708 5.34477 9.40119 5.61302C8.84281 6.17633 8.56363 6.86036 8.56363 7.66509C8.56363 8.45641 8.84281 9.13373 9.40119 9.69704C9.66708 9.9787 9.97285 10.1933 10.3185 10.3408C10.6775 10.475 11.0497 10.542 11.4353 10.542C11.8341 10.542 12.1931 10.475 12.5121 10.3408L13.3696 12.4935C12.7581 12.802 12.0468 12.9562 11.2358 12.9562C10.5046 12.9562 9.82661 12.8221 9.20177 12.5538C8.59022 12.2722 8.05843 11.8899 7.60641 11.4071C7.1544 10.9243 6.80209 10.3609 6.54949 9.71716C6.2969 9.07337 6.1706 8.38935 6.1706 7.66509C6.1706 6.92742 6.2969 6.23669 6.54949 5.5929C6.80209 4.94911 7.1544 4.3858 7.60641 3.90296C8.05843 3.42012 8.59022 3.04458 9.20177 2.77633C9.82661 2.49467 10.5046 2.35385 11.2358 2.35385C11.8873 2.35385 12.4656 2.45444 12.9708 2.65562C13.476 2.8568 13.9214 3.11164 14.3069 3.42012V2.61538H16.6999Z" />
<path d="M28.3262 11.6888C28.3262 12.413 28.1866 13.097 27.9074 13.7408C27.6415 14.3846 27.2693 14.9479 26.7907 15.4308C26.3121 15.9136 25.7537 16.2959 25.1156 16.5775C24.4774 16.8592 23.7928 17 23.0616 17C22.4633 17 21.8983 16.9061 21.3665 16.7183C20.8347 16.5306 20.3428 16.2623 19.8908 15.9136L21.6257 14.1834C22.0512 14.4517 22.5298 14.5858 23.0616 14.5858C23.8725 14.5858 24.5505 14.2974 25.0956 13.7207C25.654 13.1574 25.9332 12.4801 25.9332 11.6888V7.64497C25.9332 6.86706 25.654 6.18304 25.0956 5.5929C24.5373 5.02959 23.8592 4.74793 23.0616 4.74793C22.2905 4.74793 21.6124 5.02959 21.0275 5.5929C20.4691 6.18304 20.1899 6.86706 20.1899 7.64497C20.1899 8.4497 20.4691 9.13373 21.0275 9.69704C21.6124 10.2604 22.2905 10.542 23.0616 10.542C23.4604 10.542 23.8193 10.475 24.1384 10.3408L25.0358 12.5941C24.4375 12.8355 23.7928 12.9562 23.1014 12.9562H23.0616C22.3436 12.9562 21.6656 12.8221 21.0275 12.5538C20.3893 12.2722 19.831 11.8899 19.3524 11.4071C18.8738 10.9243 18.4949 10.3609 18.2157 9.71716C17.9365 9.07337 17.7969 8.38264 17.7969 7.64497C17.7969 6.9073 17.9165 6.21657 18.1558 5.57278C18.3951 4.92899 18.7275 4.36568 19.1529 3.88284C19.5917 3.4 20.1101 3.02446 20.7084 2.75621C21.32 2.47456 21.9847 2.33373 22.7026 2.33373C23.3939 2.33373 24.0055 2.44103 24.5373 2.65562C25.069 2.8568 25.5343 3.11164 25.9332 3.42012V2.6355H28.3262V11.6888Z" />
<path d="M31.9206 3.4C32.2928 3.09152 32.7116 2.83669 33.1769 2.6355C33.6555 2.43432 34.194 2.33373 34.7922 2.33373V4.74793C33.9945 4.74793 33.3165 5.02959 32.7581 5.5929C32.1998 6.18304 31.9206 6.86706 31.9206 7.64497V12.6947H29.5276V7.64497V2.61538H31.9206V3.4Z" />
<path d="M42.8505 8.87219H37.6257C37.7586 9.18067 37.9514 9.45562 38.204 9.69704C38.4832 9.9787 38.7956 10.1933 39.1413 10.3408C39.4869 10.475 39.8525 10.542 40.2381 10.542C40.7832 10.542 41.2684 10.4146 41.6938 10.1598L44.1866 11.1657C43.708 11.729 43.1297 12.1716 42.4516 12.4935C41.7736 12.802 41.0358 12.9562 40.2381 12.9562C39.5069 12.9562 38.8222 12.8221 38.1841 12.5538C37.5459 12.2722 36.9875 11.8899 36.5089 11.4071C36.0303 10.9243 35.6514 10.3609 35.3723 9.71716C35.1064 9.07337 34.9734 8.38935 34.9734 7.66509C34.9734 6.92742 35.1064 6.23669 35.3723 5.5929C35.6514 4.94911 36.0303 4.3858 36.5089 3.90296C36.9875 3.42012 37.5459 3.04458 38.1841 2.77633C38.8222 2.49467 39.5069 2.35385 40.2381 2.35385C40.9693 2.35385 41.654 2.49467 42.2921 2.77633C42.9302 3.04458 43.4886 3.42012 43.9672 3.90296C44.4458 4.3858 44.8181 4.94911 45.084 5.5929C45.3632 6.23669 45.5027 6.92742 45.5027 7.66509C45.5027 8.09428 45.4562 8.49665 45.3631 8.87219H42.8505ZM40.2381 4.76805C39.467 4.76805 38.789 5.0497 38.204 5.61302C37.9514 5.86785 37.7586 6.14951 37.6257 6.45799H42.8505C42.7175 6.14951 42.5248 5.86785 42.2722 5.61302C41.7138 5.0497 41.0358 4.76805 40.2381 4.76805Z" />
<path d="M54.1846 8.87219H48.9599C49.0928 9.18067 49.2856 9.45562 49.5382 9.69704C49.8174 9.9787 50.1298 10.1933 50.4754 10.3408C50.8211 10.475 51.1867 10.542 51.5723 10.542C52.1173 10.542 52.6026 10.4146 53.028 10.1598L55.5207 11.1657C55.0421 11.729 54.4638 12.1716 53.7858 12.4935C53.1078 12.802 52.3699 12.9562 51.5723 12.9562C50.841 12.9562 50.1564 12.8221 49.5182 12.5538C48.8801 12.2722 48.3217 11.8899 47.8431 11.4071C47.3645 10.9243 46.9856 10.3609 46.7064 9.71716C46.4405 9.07337 46.3076 8.38935 46.3076 7.66509C46.3076 6.92742 46.4405 6.23669 46.7064 5.5929C46.9856 4.94911 47.3645 4.3858 47.8431 3.90296C48.3217 3.42012 48.8801 3.04458 49.5182 2.77633C50.1564 2.49467 50.841 2.35385 51.5723 2.35385C52.3035 2.35385 52.9881 2.49467 53.6263 2.77633C54.2644 3.04458 54.8228 3.42012 55.3014 3.90296C55.78 4.3858 56.1522 4.94911 56.4181 5.5929C56.6973 6.23669 56.8369 6.92742 56.8369 7.66509C56.8369 8.09428 56.7904 8.49665 56.6973 8.87219H54.1846ZM51.5723 4.76805C50.8012 4.76805 50.1231 5.0497 49.5382 5.61302C49.2856 5.86785 49.0928 6.14951 48.9599 6.45799H54.1846C54.0517 6.14951 53.8589 5.86785 53.6063 5.61302C53.048 5.0497 52.3699 4.76805 51.5723 4.76805Z" />
</g>
</svg>
