<svg  viewBox="0 0 24 24" fill="none" xmlns="http://www.w3.org/2000/svg">
<path fill-rule="evenodd" clip-rule="evenodd" d="M12 23C18.0751 23 23 18.0751 23 12C23 5.92487 18.0751 1 12 1C5.92487 1 1 5.92487 1 12C1 18.0751 5.92487 23 12 23ZM11 16.4C11 15.8477 11.4477 15.4 12 15.4H12.011C12.5633 15.4 13.011 15.8477 13.011 16.4C13.011 16.9523 12.5633 17.4 12.011 17.4H12C11.4477 17.4 11 16.9523 11 16.4ZM13 7.6C13 7.04772 12.5523 6.6 12 6.6C11.4477 6.6 11 7.04772 11 7.6V12C11 12.5523 11.4477 13 12 13C12.5523 13 13 12.5523 13 12V7.6Z" fill="#BC3324"/>
</svg>

