<svg viewBox="0 0 10 6" fill="none" xmlns="http://www.w3.org/2000/svg">
<path d="M4.97901 3.67957L1.61905 0.279313C1.44121 0.100415 1.20065 -5.24821e-08 0.949901 -4.15215e-08C0.699151 -3.05609e-08 0.458589 0.100415 0.280755 0.279313C0.191793 0.368607 0.121182 0.474841 0.0729952 0.59189C0.0248085 0.708939 -2.25792e-07 0.834485 -2.20249e-07 0.961285C-2.14707e-07 1.08809 0.0248085 1.21363 0.0729953 1.33068C0.121182 1.44773 0.191793 1.55396 0.280755 1.64326L4.30512 5.71588C4.39336 5.80591 4.49833 5.87736 4.614 5.92613C4.72966 5.97489 4.85372 6 4.97901 6C5.10431 6 5.22837 5.97489 5.34403 5.92613C5.45969 5.87736 5.56467 5.80591 5.65291 5.71588L9.72473 1.64326C9.8127 1.55351 9.88229 1.44706 9.92953 1.33004C9.97676 1.21301 10.0007 1.0877 9.99998 0.961285C10.0007 0.834873 9.97676 0.709561 9.92953 0.592534C9.88229 0.475506 9.8127 0.369064 9.72473 0.279313C9.5469 0.100414 9.30634 -4.06793e-07 9.05558 -3.95832e-07C8.80484 -3.84872e-07 8.56427 0.100414 8.38644 0.279313L4.97901 3.67957Z" fill="currentColor"/>
</svg>
